<?xml version="1.0" encoding="UTF-8"?>
<svg version="1.1" xmlns="http://www.w3.org/2000/svg" width="583" height="583">
<path d="M0 0 C0.98672699 -0.00701431 1.97345398 -0.01402863 2.99008179 -0.02125549 C6.15749726 -0.03866982 9.32472591 -0.04510784 12.4921875 -0.046875 C13.57298584 -0.04754974 14.65378418 -0.04822449 15.76733398 -0.04891968 C31.19704751 -0.03358398 46.17021343 0.30846327 61.3671875 3.203125 C62.31174805 3.36941406 63.25630859 3.53570312 64.22949219 3.70703125 C87.37869314 7.81230827 109.83154925 14.79500344 131.3671875 24.203125 C132.14046387 24.53892578 132.91374023 24.87472656 133.71044922 25.22070312 C152.39589474 33.43871254 170.14128308 43.81252273 186.3671875 56.203125 C187.2319873 56.85595459 187.2319873 56.85595459 188.11425781 57.52197266 C195.66224899 63.23746788 202.80793598 69.25615577 209.7109375 75.734375 C211.84268373 77.71564502 214.00508844 79.59519527 216.2421875 81.453125 C226.6966259 90.56000585 235.73132482 101.39423721 244.04492188 112.44824219 C245.37418202 114.21240797 246.72166036 115.96157073 248.0703125 117.7109375 C255.68071939 127.70385102 262.15545672 138.29601289 268.3671875 149.203125 C268.80949707 149.97640137 269.25180664 150.74967773 269.70751953 151.54638672 C290.96658903 189.12636368 304.36271206 234.44981945 304.5703125 277.80078125 C304.57737213 278.78463806 304.58443176 279.76849487 304.59170532 280.78216553 C304.82165168 322.24357649 304.82165168 322.24357649 301.3671875 340.203125 C301.15787598 341.29238281 300.94856445 342.38164062 300.73291016 343.50390625 C290.32643898 396.00024491 267.87175084 445.36329076 231.40234375 484.984375 C229.5717433 486.98011599 227.80882267 489.01543111 226.0546875 491.078125 C217.91886612 500.37889078 209.04268178 508.53575217 199.3671875 516.203125 C197.65871184 517.64045584 195.95038151 519.07795945 194.2421875 520.515625 C154.9305385 552.49798351 106.3155216 572.65691385 56.3671875 580.203125 C55.27575439 580.38190186 54.18432129 580.56067871 53.05981445 580.74487305 C41.31883267 582.47114878 29.63118489 582.54134794 17.77954102 582.51879883 C14.3351226 582.5156528 10.89157773 582.53912911 7.44726562 582.56445312 C-7.13975405 582.60628939 -21.2372856 581.55569771 -35.6328125 579.203125 C-36.82865967 579.00968506 -38.02450684 578.81624512 -39.2565918 578.61694336 C-42.00069293 578.13524796 -44.72150582 577.60043928 -47.4453125 577.015625 C-48.41919922 576.80768311 -49.39308594 576.59974121 -50.39648438 576.38549805 C-113.09206989 562.44261441 -174.13518788 526.47602102 -213.6328125 475.203125 C-214.63600822 473.93953973 -215.63997092 472.67656316 -216.64453125 471.4140625 C-224.74811868 461.13429813 -231.92632371 450.43994886 -238.6328125 439.203125 C-239.07222168 438.47013184 -239.51163086 437.73713867 -239.96435547 436.98193359 C-263.83642202 396.74923074 -277.31663598 348.92739134 -278.6328125 302.203125 C-278.65472656 301.44451172 -278.67664063 300.68589844 -278.69921875 299.90429688 C-280.34387261 231.5415181 -258.72848167 163.52588713 -215.6328125 110.203125 C-214.84390625 109.2028125 -214.055 108.2025 -213.2421875 107.171875 C-201.22487206 92.12861683 -187.71424435 78.16153427 -172.6328125 66.203125 C-171.52285023 65.2822204 -170.41486682 64.35892689 -169.30859375 63.43359375 C-154.04921537 50.77450587 -137.2158013 40.32122649 -119.6328125 31.203125 C-118.53066406 30.63150635 -118.53066406 30.63150635 -117.40625 30.04833984 C-81.83847268 11.86942578 -40.10626283 0.19117825 0 0 Z " fill="#312D2C" transform="translate(278.6328125,0.796875)"/>
<path d="M0 0 C3.30599235 3.0205862 5.37820954 6.08426627 7.5390625 9.99609375 C7.86155975 10.57701782 8.18405701 11.15794189 8.5163269 11.75646973 C9.56096253 13.64566101 10.59400254 15.54083519 11.625 17.4375 C11.98037842 18.0876004 12.33575684 18.73770081 12.7019043 19.40750122 C47.76146207 83.61006991 47.76146207 83.61006991 41.3046875 116.546875 C40.39434402 119.49975387 39.31620362 122.20617157 38 125 C37.61070312 125.85980469 37.22140625 126.71960938 36.8203125 127.60546875 C30.44086836 140.38323112 20.67727989 151.62474866 11 162 C9.8695086 163.28686323 8.74431014 164.5783996 7.625 165.875 C1.7853314 172.56990611 -4.2392833 179.10743275 -10.36328125 185.54296875 C-35.15732637 211.65676974 -59.33499593 242.21195862 -58.375 280.046875 C-57.38967062 298.10655491 -47.65665027 313.86940387 -37.99975586 328.60498047 C-37.49710205 329.37729004 -36.99444824 330.14959961 -36.4765625 330.9453125 C-36.02361816 331.63125488 -35.57067383 332.31719727 -35.10400391 333.02392578 C-33.98878404 335.02007562 -33.44153673 336.76608645 -33 339 C-40.61963486 338.00657043 -46.0797167 335.68500677 -52.4375 331.4375 C-53.2637085 330.89955811 -54.08991699 330.36161621 -54.94116211 329.80737305 C-61.32614315 325.59101796 -67.27900785 321.08945405 -73 316 C-73.8353125 315.27296875 -74.670625 314.5459375 -75.53125 313.796875 C-78.05691097 311.56743353 -80.53538686 309.2966601 -83 307 C-83.82371094 306.24203125 -84.64742187 305.4840625 -85.49609375 304.703125 C-98.48516268 292.30170505 -109.66140159 275.61536196 -114 258 C-114.20238281 257.20078125 -114.40476563 256.4015625 -114.61328125 255.578125 C-119.74824874 231.9642609 -112.93901956 210.73765761 -100.25 190.9375 C-96.18760418 185.06167602 -91.71389645 179.53544244 -87.2109375 173.99609375 C-83.86016443 169.85841224 -80.6479244 165.62189065 -77.4375 161.375 C-73.1218026 155.68301422 -68.67673178 150.15360592 -64.02099609 144.73730469 C-59.79582939 139.80819914 -55.80076462 134.71506839 -51.8125 129.59375 C-49.4281517 126.53483817 -47.00392858 123.51019247 -44.56811523 120.4921875 C-5.8582377 74.97734737 -5.8582377 74.97734737 7 19 C5.4538654 14.02121582 3.31245295 9.4267167 0.8359375 4.84765625 C0 3 0 3 0 0 Z " fill="#3A8BB9" transform="translate(294,50)"/>
<path d="M0 0 C24.77863891 23.97210094 45.10167574 55.80235397 46.203125 90.875 C46.75743145 126.83170902 32.26433226 159.27723489 7.59765625 185.25 C4.67842197 188.34043749 1.90163752 191.53461266 -0.85546875 194.76953125 C-3.38258098 197.3979121 -6.09516443 199.73732354 -8.8527832 202.11987305 C-12.32026558 205.15603925 -15.65441882 208.33084595 -19 211.5 C-23.65311232 215.90773335 -28.35626097 220.23036732 -33.19628906 224.43261719 C-36.3165425 227.14404478 -39.37521664 229.92314107 -42.44140625 232.6953125 C-44.08732432 234.17789519 -45.74043801 235.65254862 -47.40234375 237.1171875 C-63.22561839 251.11963151 -78.10093015 264.88182446 -82.2890625 286.33984375 C-82.52367187 287.21769531 -82.75828125 288.09554688 -83 289 C-83.66 289.33 -84.32 289.66 -85 290 C-94.54591249 271.851447 -96.03901588 249.57552693 -90 230 C-80.087975 200.75798232 -58.59891601 177.91434539 -37.96508789 155.64453125 C-35.62680146 153.11128586 -33.31011276 150.55893254 -31 148 C-30.175 147.08863281 -29.35 146.17726562 -28.5 145.23828125 C-10.42688746 124.47157982 1.16791968 99.49354833 8 73 C8.22445801 72.13487793 8.44891602 71.26975586 8.68017578 70.37841797 C14.29076948 47.99201993 14.39108281 25.88799358 2.48828125 5.57421875 C1 3 1 3 0 0 Z " fill="#FCFCFC" transform="translate(345,70)"/>
<path d="M0 0 C-0.03480469 0.94101562 -0.06960937 1.88203125 -0.10546875 2.8515625 C-0.13253906 4.09679687 -0.15960938 5.34203125 -0.1875 6.625 C-0.22230469 7.85476563 -0.25710937 9.08453125 -0.29296875 10.3515625 C0.08462842 15.05390597 1.42112147 18.25001148 4.5859375 21.7578125 C23.56444881 36.26104167 54.58113619 33.30935055 77 31 C77.68578125 30.93022949 78.3715625 30.86045898 79.078125 30.78857422 C84.39150277 30.24167716 89.69616645 29.63209414 95 29 C96.23492187 28.85691406 97.46984375 28.71382813 98.7421875 28.56640625 C108.51936477 27.3576305 118.14799007 25.54519004 127.80810547 23.63134766 C130.7520652 23.0490408 133.69726318 22.47336234 136.64286804 21.89944458 C139.31029393 21.37869432 141.97688268 20.85374772 144.64328003 20.32775879 C146.57240386 19.94785772 148.50213669 19.57105326 150.43188477 19.19433594 C156.96588391 17.89544768 163.34596647 16.44004803 169.70849609 14.45532227 C172.18380015 13.96347887 173.63427847 14.19361233 176 15 C161.77261763 22.12639421 147.51081984 28.64414842 132.54296875 34.0625 C131.64521729 34.38863281 130.74746582 34.71476562 129.82250977 35.05078125 C127.82683646 35.72193234 125.80464716 36.31652054 123.76928711 36.85546875 C118.07521462 38.26711077 118.07521462 38.26711077 113.51000977 41.6796875 C112.47365287 43.76443675 111.80708021 45.75653373 111.1875 48 C110.92654541 48.77875488 110.66559082 49.55750977 110.39672852 50.35986328 C109.55343944 52.89450906 108.77581908 55.44397015 108 58 C107.1271087 60.74519411 106.23743614 63.48303771 105.32348633 66.21484375 C104.74493866 67.95192157 104.18897056 69.69672919 103.65893555 71.44921875 C101.66835522 77.55851765 101.66835522 77.55851765 98.01953125 79.96875 C93.59609819 82.94441001 92.82065766 86.68443364 91.25 91.625 C90.67654444 93.34791538 90.09862266 95.06935252 89.515625 96.7890625 C89.27102539 97.54912598 89.02642578 98.30918945 88.77441406 99.09228516 C88 101 88 101 86 103 C84.01178687 103.39764263 82.01055661 103.73775349 80 104 C79.85632492 104.88084259 79.85632492 104.88084259 79.70974731 105.77947998 C78.70404378 111.94498667 77.69804984 118.11044593 76.69189453 124.27587891 C76.31747253 126.57046334 75.94312219 128.86505947 75.56884766 131.15966797 C75.02786236 134.47626852 74.48661105 137.79282557 73.9453125 141.109375 C73.698311 142.62419464 73.698311 142.62419464 73.44631958 144.1696167 C73.12685045 146.12640283 72.80148171 148.08223629 72.4697876 150.0369873 C72.13960383 152.11950016 71.85710993 154.2098607 71.60980225 156.30383301 C71.40245453 157.91348938 71.40245453 157.91348938 71.19091797 159.55566406 C71.08085419 160.52731506 70.97079041 161.49896606 70.85739136 162.50006104 C70 165 70 165 67.57424927 166.79803467 C62.77484602 169.03896619 58.31684722 169.15897477 53.0625 169.1875 C51.87785156 169.20167969 50.69320312 169.21585938 49.47265625 169.23046875 C42.94304863 168.79712021 42.94304863 168.79712021 40 167 C38.55886446 163.53099556 38.03545884 159.94426626 37.4375 156.25 C37.03480195 154.05557552 36.62980295 151.8615722 36.22265625 149.66796875 C36.0230127 148.55341309 35.82336914 147.43885742 35.61767578 146.29052734 C34.68925777 141.34459139 33.53575739 136.45815218 32.375 131.5625 C31.1491351 126.36576682 29.98684535 121.20067955 29.1953125 115.91796875 C29.07494629 115.12769287 28.95458008 114.33741699 28.83056641 113.52319336 C28.61657435 112.05164238 28.42221342 110.57704674 28.25146484 109.09985352 C27.98776239 106.91372996 27.98776239 106.91372996 27 104 C24.57411886 102.73481652 24.57411886 102.73481652 22 102 C20.77734375 100.22265625 20.77734375 100.22265625 19.9375 98.0625 C19.61523438 97.2684375 19.29296875 96.474375 18.9609375 95.65625 C18.28688194 93.79300699 17.64924794 91.91637576 17.0390625 90.03125 C16.71679688 89.0515625 16.39453125 88.071875 16.0625 87.0625 C15.78535156 86.14597656 15.50820312 85.22945313 15.22265625 84.28515625 C13.6283439 81.30537118 12.14187476 81.01779041 9 80 C6.5795879 77.5795879 6.26437292 75.94179966 5.37890625 72.65234375 C5.08306641 71.57146484 4.78722656 70.49058594 4.48242188 69.37695312 C4.17884766 68.24193359 3.87527344 67.10691406 3.5625 65.9375 C2.66915981 62.63502303 1.77003939 59.33495032 0.84741211 56.04052734 C0.31657562 54.13587805 -0.19378744 52.22527165 -0.67358398 50.30712891 C-1.80034333 46.22953094 -2.35353055 44.47401864 -5.85546875 41.90625 C-6.95503906 41.4421875 -8.05460938 40.978125 -9.1875 40.5 C-15.53864302 37.40257454 -20.52239425 34.32200583 -24 28 C-25.28186877 23.16887094 -25.20493756 19.14375394 -22.7265625 14.734375 C-18.02141265 8.94681979 -7.81385427 0 0 0 Z " fill="#FCFCFC" transform="translate(213,369)"/>
<path d="M0 0 C4.24775425 4.24775425 3.18230848 12.99058143 3.23828125 18.78515625 C3.246353 19.60390732 3.25442474 20.42265839 3.26274109 21.26622009 C3.27648957 22.99150536 3.28725244 24.71681677 3.29516602 26.44213867 C3.30663965 28.17659696 3.32701766 29.91102124 3.35668945 31.64526367 C3.60662586 46.30773438 2.26542102 59.49895934 -5.0625 72.5625 C-5.45332764 73.27172607 -5.84415527 73.98095215 -6.24682617 74.71166992 C-16.68328973 93.0871754 -32.78326777 109.04467212 -49.3671875 121.9375 C-52.66875977 124.5238949 -55.82905668 127.25618415 -59 130 C-63.1353866 133.56966795 -67.30324648 137.0777177 -71.5625 140.5 C-91.52725623 156.7544918 -105.53603998 172.09728464 -110 198 C-116.75712707 191.91858564 -117.52725686 183.6122645 -118.15039062 174.89648438 C-119.01625403 158.18091791 -115.47429182 143.28194763 -104.16015625 130.41943359 C-98.79882012 124.54758242 -93.00018351 119.21342959 -87 114 C-82.23351778 109.77763675 -77.50287823 105.56698779 -73.0625 101 C-69.30895381 97.19411353 -65.25788 93.87826127 -61.1015625 90.5234375 C-31.30453325 66.28051446 -4.18948516 39.85523382 0 0 Z " fill="#B53C3D" transform="translate(402,193)"/>
<path d="M0 0 C3.08089673 2.77280706 4.68775452 5.06326356 6 9 C5.01 9 4.02 9 3 9 C0 3.375 0 3.375 0 0 Z " fill="#397BA1" transform="translate(294,50)"/>
</svg>
