<?xml version="1.0" standalone="no"?>
<!DOCTYPE svg PUBLIC "-//W3C//DTD SVG 20010904//EN"
 "http://www.w3.org/TR/2001/REC-SVG-20010904/DTD/svg10.dtd">
<svg version="1.0" xmlns="http://www.w3.org/2000/svg"
 width="512.000000pt" height="512.000000pt" viewBox="0 0 512.000000 512.000000"
 preserveAspectRatio="xMidYMid meet">

<g transform="translate(0.000000,512.000000) scale(0.100000,-0.100000)"
fill="#000000" stroke="none">
<path d="M2347 5109 c-371 -31 -743 -148 -1072 -338 l-80 -46 110 -5 110 -5
-102 -74 c-57 -41 -103 -79 -103 -84 0 -5 16 -60 36 -123 20 -64 35 -117 33
-119 -2 -2 -49 30 -104 71 -55 41 -103 74 -106 74 -3 0 -42 -26 -86 -59 -44
-32 -92 -66 -106 -76 l-27 -17 15 49 c8 26 23 74 34 106 l20 58 -48 -40 c-86
-73 -268 -268 -350 -378 -45 -59 -81 -111 -81 -115 0 -4 15 -8 32 -10 l33 -3
-71 -52 c-50 -36 -80 -67 -101 -103 l-30 -52 29 -95 c16 -52 28 -97 26 -99 -2
-2 -29 15 -60 36 l-56 40 -40 -99 -41 -98 37 -111 36 -112 135 0 135 0 -104
-76 c-58 -42 -107 -79 -110 -81 -2 -2 14 -60 37 -128 23 -69 39 -125 36 -125
-3 0 -52 34 -109 76 l-103 75 -65 -45 c-72 -52 -69 -41 -82 -258 l-7 -108
2563 0 2563 0 -7 123 c-10 176 -39 370 -77 510 l-10 37 -1234 0 -1235 0 0 335
0 335 1090 2 1089 3 -61 90 c-121 177 -271 346 -441 496 l-77 69 -800 0 -800
0 0 280 0 280 -57 -1 c-32 -1 -102 -5 -156 -10z m-317 -264 l42 -125 131 0
c152 -1 151 9 4 -97 l-86 -62 40 -118 c21 -65 38 -121 37 -125 -2 -3 -48 27
-103 67 -55 41 -103 74 -106 75 -4 0 -53 -34 -110 -75 -57 -41 -104 -73 -106
-72 -1 2 16 59 38 126 22 68 36 127 31 130 -5 3 -52 38 -106 76 l-97 70 133 5
132 5 39 123 c22 67 40 122 42 122 2 0 22 -56 45 -125z m-915 -752 l37 -113
129 0 c71 0 129 -3 129 -7 0 -5 -43 -39 -96 -77 -53 -38 -98 -75 -101 -82 -3
-7 12 -63 32 -124 20 -61 35 -114 32 -116 -3 -3 -51 28 -107 70 l-102 75 -107
-79 c-58 -43 -107 -77 -108 -76 -2 1 15 56 37 121 22 66 40 122 40 126 0 4
-48 43 -107 86 l-108 78 136 3 135 3 39 119 c22 66 42 117 46 112 3 -4 23 -58
44 -119z m915 4 l36 -112 132 -3 c73 -1 132 -6 132 -10 0 -4 -47 -40 -104 -81
l-103 -73 38 -121 c21 -67 37 -123 35 -125 -2 -2 -50 30 -107 71 l-102 75
-109 -79 c-124 -91 -119 -97 -61 76 33 97 33 100 15 115 -11 8 -59 44 -108 80
l-89 65 135 3 135 3 38 120 c21 67 42 118 45 114 4 -3 23 -56 42 -118z m-916
-749 l37 -117 132 -3 132 -3 -89 -65 c-48 -36 -96 -70 -104 -76 -15 -11 -13
-24 21 -134 21 -67 37 -124 35 -125 -2 -2 -49 30 -106 72 l-103 75 -106 -77
c-58 -42 -107 -75 -108 -73 -2 2 15 59 37 127 22 68 36 127 30 130 -5 3 -52
38 -106 76 l-97 70 133 3 133 3 39 125 c22 68 43 121 47 117 4 -4 23 -61 43
-125z m916 7 l41 -124 132 -3 132 -3 -107 -78 -107 -77 40 -117 c21 -65 38
-121 37 -125 -2 -4 -49 27 -106 68 -62 45 -108 72 -115 67 -7 -4 -54 -38 -106
-75 -52 -38 -96 -67 -97 -65 -2 2 14 57 36 122 22 65 37 121 35 126 -3 4 -51
41 -106 81 l-101 73 133 5 133 5 40 123 c22 67 41 122 42 122 1 0 21 -56 44
-125z"/>
<path d="M93 1878 c2 -7 12 -40 21 -73 31 -108 115 -307 185 -440 l68 -130
2193 0 2193 0 68 130 c69 131 152 329 184 440 10 33 20 66 22 73 4 9 -493 12
-2467 12 -1974 0 -2471 -3 -2467 -12z"/>
<path d="M980 553 c1 -12 140 -110 255 -181 451 -276 1009 -408 1535 -362 223
20 473 74 666 145 128 47 375 168 487 239 105 66 217 148 217 159 0 4 -711 7
-1580 7 -869 0 -1580 -3 -1580 -7z"/>
</g>
</svg>
